<svg xmlns="http://www.w3.org/2000/svg" width="141" height="28"><path fill="#fff" d="M62.567 0h7.496l-7.751 23.57h-8.316L51.7 14.713h-.796l-2.998 8.855H40.41L46.85 4.15h8.504l2.038 9.017h.796zM39.78 4.15l.629 19.42h-7.656l.022-2.104H25.35l-1.486 2.13h-8.18l5.932-8.719h-9.938l-2.832 8.694H0l3.85-11.757 8.133-4.595L6.967 2.29 7.692.08h20.21l-2.247 6.657H14.344l-.69 2.15h10.293l-1.598 4.92 6.578-9.656zm-6.844 7.1h-1.078l-2.952 4.646h3.952zm83.262-.675h-7.706l2.14-6.425h7.682zm-7.94.683h7.683l-4.014 12.311h-7.707zM86.272 4.15l.629 19.42h-7.658l.024-2.104h-7.423l-1.333 2.105h-8.177L75.425 4.15zm54.727 0l-10.4 8.808L139.7 28h-7.661l-6.805-11.227h-.68l-2.763 2.173-1.523 4.623h-7.684l6.443-19.42h7.66l-1.804 5.433h.96l6.443-5.432zm-30.992 0l-2.086 6.31h-6.723l-4.334 13.11H89.18l4.334-13.11h-6.886l2.062-6.31zM1.066 11.816l3.27-9.989.005.006-.004-.006 5.568 4.988-5.341 3.022-3.498 1.989.052-.04zm78.37-.568H78.36l-2.952 4.636h3.956z"/></svg>